<svg xmlns="http://www.w3.org/2000/svg" viewBox="0 0 100 100" role="img" aria-label="OriginMarker"><title>OriginMarker</title><circle cx="50.0" cy="50.0" r="38.0" fill="none" stroke="#2e6da4" stroke-width="10.0"/><path d="M-79 0 -68 93 92 120 411 1364 223 1387 237 1486H837L950 583L973 398L1041 588L1403 1486H1936L1924 1387L1750 1364L1715 120L1888 93L1881 0H1243L1251 95L1435 120L1483 973L1505 1370L1361 1021L921 -1L777 0L630 997L573 1368L490 987L285 120L496 93L487 0Z" fill="#337ab7" transform="translate(26.500,68.793) scale(0.025310,-0.025310)"/></svg>