<svg xmlns="http://www.w3.org/2000/svg" viewBox="0 0 16900 3680" width="338" role="img" aria-label="OriginMarker"><title>OriginMarker</title><g transform="translate(680.0,680.0) scale(23.2000)"><circle cx="50" cy="50" r="38" fill="none" stroke="#2e6da4" stroke-width="10"/><path d="M-79 0 -68 93 92 120 411 1364 223 1387 237 1486H837L950 583L973 398L1041 588L1403 1486H1936L1924 1387L1750 1364L1715 120L1888 93L1881 0H1243L1251 95L1435 120L1483 973L1505 1370L1361 1021L921 -1L777 0L630 997L573 1368L490 987L285 120L496 93L487 0Z" fill="#337ab7" transform="translate(26.500,68.793) scale(0.025310,-0.025310)"/></g><path d="M650 -20Q509 -20 406.5 30.5Q304 81 238.0 169.0Q172 257 140.0 372.5Q108 488 108 617Q107 789 154.5 948.0Q202 1107 296.0 1233.0Q390 1359 529.0 1432.5Q668 1506 851 1506Q993 1506 1095.5 1455.5Q1198 1405 1264.0 1317.0Q1330 1229 1361.5 1115.5Q1393 1002 1394 876Q1395 702 1348.0 541.0Q1301 380 1207.0 254.0Q1113 128 973.5 54.0Q834 -20 650 -20ZM676 94Q756 94 820.5 134.5Q885 175 935.0 247.5Q985 320 1018.5 416.5Q1052 513 1069.0 626.5Q1086 740 1085 861Q1084 989 1069.0 1087.5Q1054 1186 1022.5 1253.5Q991 1321 942.0 1356.0Q893 1391 824 1391Q745 1391 680.0 1350.5Q615 1310 565.5 1238.0Q516 1166 482.5 1070.0Q449 974 432.0 862.5Q415 751 415 632Q416 502 432.0 401.5Q448 301 479.5 232.5Q511 164 560.5 129.0Q610 94 676 94Z" fill="#2e6da4" transform="translate(3421.1,2583.0) scale(1,-1)"/><path d="M91 0 220 950 117 1005 133 1086 421 1135 469 1105 457 924 450 848Q467 900 498.5 951.5Q530 1003 574.0 1044.5Q618 1086 672.0 1110.5Q726 1135 789 1135Q812 1135 830.0 1129.5Q848 1124 856 1118L798 824Q790 832 763.5 842.0Q737 852 693 852Q660 852 625.5 845.0Q591 838 559.5 825.0Q528 812 502.0 790.5Q476 769 458 741L356 0Z" fill="#2e6da4" transform="translate(4870.1,2583.0) scale(1,-1)"/><path d="M274 -20Q216 -20 176.5 -3.0Q137 14 119.0 44.5Q101 75 106 117Q111 162 120.5 227.0Q130 292 141.5 373.0Q153 454 167.0 548.0Q181 642 194.5 744.0Q208 846 222 952L106 1007L120 1086L467 1135L516 1112L384 202Q379 166 388.0 147.5Q397 129 417 129Q435 129 456.5 140.5Q478 152 512 180L538 119Q527 104 493.5 71.0Q460 38 405.0 9.0Q350 -20 274 -20ZM394 1269Q335 1269 293.5 1313.0Q252 1357 255 1416Q258 1489 303.5 1539.0Q349 1589 426 1589Q492 1589 531.0 1546.5Q570 1504 569 1449Q568 1373 524.0 1321.0Q480 1269 394 1269Z" fill="#2e6da4" transform="translate(5693.1,2583.0) scale(1,-1)"/><path d="M931 -76Q915 -200 857.0 -283.0Q799 -366 716.0 -414.0Q633 -462 538.5 -482.5Q444 -503 353 -503Q307 -503 257.0 -496.5Q207 -490 165.5 -480.5Q124 -471 105 -462L152 -271Q167 -281 209.0 -301.0Q251 -321 307.0 -338.5Q363 -356 419 -356Q492 -356 540.5 -338.5Q589 -321 617.5 -273.5Q646 -226 657 -138L686 96Q655 66 613.0 39.5Q571 13 519.5 -3.5Q468 -20 407 -20Q288 -20 212.5 36.0Q137 92 102.0 186.0Q67 280 67 395Q67 502 93.5 608.5Q120 715 174.0 809.5Q228 904 307.0 978.0Q386 1052 490.5 1094.0Q595 1136 725 1136Q785 1136 849.5 1122.0Q914 1108 956 1091L1102 1136ZM815 988Q791 1000 761.5 1006.0Q732 1012 702 1012Q625 1012 566.5 974.5Q508 937 467.0 873.5Q426 810 400.5 731.0Q375 652 363.0 568.0Q351 484 351 407Q351 342 362.0 291.5Q373 241 393.5 205.5Q414 170 443.5 151.5Q473 133 511 133Q552 133 588.5 148.5Q625 164 654.5 189.0Q684 214 705 242Z" fill="#2e6da4" transform="translate(6318.1,2583.0) scale(1,-1)"/><path d="M274 -20Q216 -20 176.5 -3.0Q137 14 119.0 44.5Q101 75 106 117Q111 162 120.5 227.0Q130 292 141.5 373.0Q153 454 167.0 548.0Q181 642 194.5 744.0Q208 846 222 952L106 1007L120 1086L467 1135L516 1112L384 202Q379 166 388.0 147.5Q397 129 417 129Q435 129 456.5 140.5Q478 152 512 180L538 119Q527 104 493.5 71.0Q460 38 405.0 9.0Q350 -20 274 -20ZM394 1269Q335 1269 293.5 1313.0Q252 1357 255 1416Q258 1489 303.5 1539.0Q349 1589 426 1589Q492 1589 531.0 1546.5Q570 1504 569 1449Q568 1373 524.0 1321.0Q480 1269 394 1269Z" fill="#2e6da4" transform="translate(7456.1,2583.0) scale(1,-1)"/><path d="M476 895Q512 947 553.5 991.0Q595 1035 643.0 1067.5Q691 1100 744.5 1118.0Q798 1136 856 1136Q967 1136 1036.0 1071.0Q1105 1006 1105 842Q1105 808 1096.5 746.0Q1088 684 1076.5 616.0Q1065 548 1056 494Q1048 444 1037.5 388.5Q1027 333 1019.5 280.5Q1012 228 1011 188Q1011 153 1021.0 141.0Q1031 129 1044 129Q1062 129 1082.5 139.5Q1103 150 1135 175L1161 113Q1153 99 1119.0 67.0Q1085 35 1029.0 7.5Q973 -20 895 -20Q825 -20 788.5 1.5Q752 23 739.0 57.5Q726 92 726 130Q727 156 731.5 191.0Q736 226 744.0 267.5Q752 309 760.0 352.0Q768 395 776 436Q783 477 791.5 524.5Q800 572 807.0 623.0Q814 674 819.0 723.0Q824 772 823 815Q822 874 812.5 905.5Q803 937 782.0 949.5Q761 962 727 962Q694 962 657.0 942.0Q620 922 584.0 887.5Q548 853 514.5 807.5Q481 762 454 711L357 0H91L219 951L117 1006L132 1087L450 1136L496 1113Z" fill="#2e6da4" transform="translate(8081.1,2583.0) scale(1,-1)"/><path d="M-79 0 -68 93 92 120 411 1364 223 1387 237 1486H837L950 583L973 398L1041 588L1403 1486H1936L1924 1387L1750 1364L1715 120L1888 93L1881 0H1243L1251 95L1435 120L1483 973L1505 1370L1361 1021L921 -1L777 0L630 997L573 1368L490 987L285 120L496 93L487 0Z" fill="#337ab7" transform="translate(9316.1,2583.0) scale(1,-1)"/><path d="M952 206Q946 164 958.0 146.5Q970 129 990 129Q1006 129 1026.5 139.5Q1047 150 1079 177L1107 115Q1097 99 1062.5 66.5Q1028 34 973.5 7.0Q919 -20 850 -20Q790 -20 750.0 9.5Q710 39 707 101L711 133Q678 96 633.5 60.5Q589 25 531.5 2.5Q474 -20 402 -20Q286 -20 211.0 35.5Q136 91 100.5 184.5Q65 278 65 391Q65 499 93.5 606.5Q122 714 176.5 809.0Q231 904 311.5 978.0Q392 1052 496.0 1094.0Q600 1136 726 1136Q779 1136 840.5 1123.0Q902 1110 944 1095L1080 1135ZM793 994Q772 1003 748.5 1007.5Q725 1012 701 1012Q627 1012 570.0 975.5Q513 939 471.0 876.5Q429 814 402.0 735.0Q375 656 362.0 570.0Q349 484 349 402Q349 317 368.5 256.5Q388 196 423.5 164.5Q459 133 506 133Q535 133 561.5 142.5Q588 152 611.0 168.0Q634 184 654.0 203.0Q674 222 690 241Z" fill="#337ab7" transform="translate(11266.1,2583.0) scale(1,-1)"/><path d="M91 0 220 950 117 1005 133 1086 421 1135 469 1105 457 924 450 848Q467 900 498.5 951.5Q530 1003 574.0 1044.5Q618 1086 672.0 1110.5Q726 1135 789 1135Q812 1135 830.0 1129.5Q848 1124 856 1118L798 824Q790 832 763.5 842.0Q737 852 693 852Q660 852 625.5 845.0Q591 838 559.5 825.0Q528 812 502.0 790.5Q476 769 458 741L356 0Z" fill="#337ab7" transform="translate(12425.1,2583.0) scale(1,-1)"/><path d="M74 0 278 1473 145 1512 160 1588 508 1627 559 1600 342 0ZM842 -19Q793 -19 757.5 -5.0Q722 9 698.5 34.5Q675 60 659 95L437 596Q492 629 545.0 660.5Q598 692 652.0 737.0Q706 782 761 854Q790 891 801.5 930.5Q813 970 814 1012Q816 1058 839.0 1084.5Q862 1111 895.0 1121.5Q928 1132 957 1132Q1011 1132 1040.0 1099.0Q1069 1066 1070 1019Q1071 974 1055.5 937.5Q1040 901 1018 872Q983 826 932.0 784.5Q881 743 823.5 708.5Q766 674 712.0 647.0Q658 620 616 601L643 693L889 244Q914 201 943.0 177.5Q972 154 997 154Q1015 154 1044.5 164.5Q1074 175 1102 199L1135 134Q1117 110 1075.5 73.5Q1034 37 974.5 9.0Q915 -19 842 -19Z" fill="#337ab7" transform="translate(13248.1,2583.0) scale(1,-1)"/><path d="M906 204Q879 162 819.5 109.0Q760 56 672.0 17.0Q584 -22 469 -22Q357 -22 278.5 16.0Q200 54 152.0 118.5Q104 183 82.5 263.0Q61 343 61 425Q61 577 107.0 707.0Q153 837 235.0 934.0Q317 1031 427.5 1086.0Q538 1141 667 1141Q771 1141 837.0 1108.5Q903 1076 935.0 1020.5Q967 965 968 896Q970 800 929.0 727.5Q888 655 819.0 603.0Q750 551 667.0 518.0Q584 485 500.5 468.5Q417 452 349 451Q347 381 358.5 323.0Q370 265 394.5 222.5Q419 180 457.0 156.5Q495 133 547 133Q617 133 673.0 156.5Q729 180 773.0 217.0Q817 254 851 294ZM606 1016Q542 1016 496.0 972.5Q450 929 419.0 859.5Q388 790 371.0 711.0Q354 632 350 560Q392 562 441.5 576.0Q491 590 539.0 616.0Q587 642 626.0 679.0Q665 716 687.5 765.0Q710 814 708 873Q706 944 680.0 980.0Q654 1016 606 1016Z" fill="#337ab7" transform="translate(14378.1,2583.0) scale(1,-1)"/><path d="M91 0 220 950 117 1005 133 1086 421 1135 469 1105 457 924 450 848Q467 900 498.5 951.5Q530 1003 574.0 1044.5Q618 1086 672.0 1110.5Q726 1135 789 1135Q812 1135 830.0 1129.5Q848 1124 856 1118L798 824Q790 832 763.5 842.0Q737 852 693 852Q660 852 625.5 845.0Q591 838 559.5 825.0Q528 812 502.0 790.5Q476 769 458 741L356 0Z" fill="#337ab7" transform="translate(15397.1,2583.0) scale(1,-1)"/></svg>